PathFileType	4	(X/Y/Z)	11_1_3_p0_0-612.trc
DataRate	CameraRate	NumFrames	NumMarkers	Units	OrigDataRate	OrigDataStartFrame	OrigNumFrames
60.0	60.0	5	27	m	60.0	0	613
Frame#	Time	RHip			RKnee			RAnkle			RBigToe			RSmallToe			RHeel			LHip			LKnee			LAnkle			LBigToe			LSmallToe			LHeel			Neck			Head			Nose			RShoulder			RElbow			RWrist			RThumb			RIndex			RPinky			LShoulder			LElbow			LWrist			LThumb			LIndex			LPinky			
		X1	Y1	Z1	X2	Y2	Z2	X3	Y3	Z3	X4	Y4	Z4	X5	Y5	Z5	X6	Y6	Z6	X7	Y7	Z7	X8	Y8	Z8	X9	Y9	Z9	X10	Y10	Z10	X11	Y11	Z11	X12	Y12	Z12	X13	Y13	Z13	X14	Y14	Z14	X15	Y15	Z15	X16	Y16	Z16	X17	Y17	Z17	X18	Y18	Z18	X19	Y19	Z19	X20	Y20	Z20	X21	Y21	Z21	X22	Y22	Z22	X23	Y23	Z23	X24	Y24	Z24	X25	Y25	Z25	X26	Y26	Z26	X27	Y27	Z27	
0	0.0	0.3515398172108528	0.5912237346210808	0.6237004607100309	0.37877836883715715	0.6519410945549806	1.0613995634084654	0.3544194041832006	0.7377317227863766	1.464430637152881	0.3524767644706204	0.5536569698346381	1.4677170153709949	0.4163267530734493	0.5809726765739487	1.4527003320410077	0.3331479280602684	0.8293989425340963	1.5498420420783352	0.1433738290402527	0.590386574992792	0.6398791395321085	0.1490686923334206	0.6498283899667431	1.0695174779927517	0.1661127474503004	0.6991024711015347	1.455581178591019	0.19277156100651344	0.5433495361000934	1.4610306429210203	0.13223944246973002	0.5835239600924419	1.464934101903394	0.1717263068292275	0.7892766538979779	1.5208554247861348	0.22320951175389883	0.5564858210702541	0.08255262710144812	0.22969218413086404	0.426722829897101	-0.17220909056885356	0.22995929370378212	0.39689499110527093	-0.018823850378657143	0.3802393710868086	0.5391441759279076	0.15842921215018838	0.44823406895229306	0.6494750365721775	0.40011488992958566	0.46527506332169966	0.6673062594605924	0.6388065116937142	0.41771498767950493	0.6068140031607123	0.7467025667104917	0.45558458938898505	0.5853591759539172	0.7640339632751926	0.48356792683427174	0.6371476976681794	0.7620259991739418	0.08725254333389541	0.5150260546623542	0.16276795391535256	0.037038072029063826	0.5846492128217964	0.4347566738564504	0.033973051301623515	0.593436636169411	0.6523368205603232	0.10202707028882484	0.5702427869090413	0.7555264461077107	0.05477887958716724	0.5871733274016441	0.7983613941433728	0.03649949699989497	0.6001572241932402	0.7831084206021701
1	0.016666666666666666	0.3561062734933306	0.5921481263051781	0.6276637337369454	0.37486431798586356	0.6506223920804988	1.0619520617643161	0.35436865789232475	0.7378797226560896	1.4645874995304342	0.3545869977397288	0.5685389545504834	1.470931275849332	0.4118005959924895	0.5974530508286562	1.46198729105926	0.33292120467705194	0.8291419993382428	1.5491778846142379	0.14367661958590813	0.5897295890665927	0.6436709257168828	0.15296871247599259	0.6510925470981926	1.0698733997379886	0.1661526053228592	0.6989733986561841	1.4556235327820495	0.19366224195461174	0.5453846733515721	1.4664194202930672	0.1321768436090819	0.5834398516083807	1.4649967361108938	0.17151310173913534	0.7874757498745171	1.5198781592266666	0.2231771343747943	0.5564009106168761	0.0825467282557535	0.22384867053341134	0.4137433097447759	-0.17165027861639337	0.2298446393158743	0.3967471649362845	-0.018784129941574832	0.37983824242566433	0.5380343437976167	0.15482670451595276	0.4490779796008476	0.6468662210046721	0.39972585423496615	0.46624996765702925	0.6639435061894127	0.6374781384156823	0.417627570292503	0.6065616093105618	0.7469499162024166	0.4424716187219374	0.6105912540364302	0.773945988722102	0.483619911799728	0.636630009057513	0.7619273119795141	0.08730750184612733	0.5146535351800556	0.16289617569069048	0.036829749543362295	0.5844590986963277	0.4387617607485176	0.03381296240770488	0.5930593878446692	0.6602556196667896	0.09504020033675005	0.5844735082663638	0.7690008379416903	0.05495355204161568	0.5870399728203848	0.801366215041172	0.034563425382298264	0.6023813853854492	0.7979949845836128
2	0.03333333333333333	0.35613653038326437	0.5919307656603782	0.6274859142976775	0.3752069796416156	0.6494726404972887	1.0654300759790114	0.35435660704295313	0.7379262356595246	1.4645907787369288	0.3519126821028516	0.5551925222087196	1.463953925184833	0.4117013830776088	0.5970971427102669	1.4618543267561985	0.33306113654873604	0.8296105168500267	1.5496788076311159	0.1436865895803168	0.5898286206384107	0.6437137770698513	0.1529715485359346	0.6509531705144644	1.0697961656865798	0.1661102146954445	0.6990785631472498	1.455614621791837	0.19366965728782456	0.5453448278193539	1.4663680402088444	0.13207751430773673	0.5832666472142175	1.4648863565244101	0.1714263986580409	0.7880379007602414	1.5201550124762249	0.22310762791800856	0.5564433621993029	0.0824287393314784	0.2238111345655074	0.4138416709996636	-0.1716185423639577	0.22978331255453144	0.3968112658515403	-0.018881970758349405	0.37980431130631975	0.5380557620281413	0.15486073114523444	0.448145775875488	0.6494967022998757	0.3999690377383593	0.46530026741583086	0.667492121648501	0.6374889424715284	0.4175138226334293	0.6069535943356716	0.746262209327379	0.4424322297807203	0.6106631148966333	0.7737876375665843	0.48365106831032484	0.6357692825869155	0.7616090406525223	0.08730449146379757	0.5145840856582508	0.1628999869444711	0.03681259340662249	0.5847656554967634	0.4388498123258643	0.032868564896566255	0.5945157953697373	0.660237920757464	0.09516224257420837	0.5845304002536837	0.7687701061666385	0.05443460745421349	0.5876008266107041	0.8047740535634766	0.0346259313720636	0.6024373190232112	0.7979437770828237
3	0.05	0.35610665986823314	0.5919874261625844	0.6274263317725726	0.3747623142723971	0.6505472744056358	1.061522107929463	0.3543561314011936	0.737770022025205	1.4645014562203964	0.3520421631848234	0.5551049271021922	1.4638691269403739	0.4165881479595476	0.5814880209593634	1.452787060333012	0.3330071740839219	0.8295682128816475	1.549612920725064	0.1437099794802597	0.589762829081914	0.6436741685325976	0.15087496060483294	0.6368940914137026	1.0644986371061287	0.16607221264818778	0.6990968436217818	1.4556053854846303	0.1927698277234364	0.5432637831576214	1.4609869567204867	0.1320876641413219	0.5829936992394872	1.4646651541302578	0.17142803942788426	0.7887430096610675	1.5205206014763553	0.22303119946087857	0.5564250123792154	0.08240321381590952	0.22380920069602916	0.41381752044410813	-0.17160899186672737	0.2297097143766122	0.39692886560703416	-0.018853401537125298	0.3797729490888079	0.5381104766770347	0.15489606190900448	0.44643785422122473	0.6772157123860342	0.4051701203265217	0.465650052747394	0.6661592376049573	0.6374877999427573	0.41759540863927486	0.6060353242276207	0.746422417710342	0.44559030131789285	0.5774428509254201	0.7633997652602912	0.48343915836254553	0.6361136031469862	0.7618079699362494	0.08732646771602393	0.5145842859056395	0.16289860283281055	0.03309470134187008	0.5820090113296712	0.43857183461806576	0.0332419142251222	0.5934798991501181	0.6639769268014291	0.10109113107998045	0.5709410648324152	0.7643835460059768	0.059504077952784104	0.5902648713172062	0.8014055526584121	0.03463458557729989	0.602122852015778	0.7977354242773108
4	0.06666666666666667	0.3562566024765506	0.5920213822631554	0.6275450882773416	0.374840827651559	0.650439301895693	1.0616373498315372	0.3543034605815748	0.7378285682784833	1.4645085865559	0.352005519543633	0.5550671030262893	1.4638738862390546	0.4164239215859433	0.5813844839278529	1.4526929139298053	0.33301953629483827	0.8296796605136741	1.5497469248402809	0.14377453719861832	0.589697535236228	0.6436879745876749	0.1470779596802074	0.635397887742885	1.0643667235399172	0.1660663208944681	0.6991334086714766	1.4556382751564718	0.19072887256996868	0.5298285359956048	1.453971655712711	0.13207203410683868	0.5830607062604705	1.464760738228174	0.17153717619706987	0.7894155462607495	1.5209024294943343	0.21909659923484143	0.5542701300908349	0.08240548343377746	0.21900587370771601	0.42525146561913707	-0.1684919099804938	0.22959262009214762	0.3970428739748628	-0.018778683144075093	0.38014332038654136	0.5393645438883155	0.15843216008485875	0.44653444907235496	0.6765967124405151	0.40620217221957117	0.4666271642160037	0.6628432752893568	0.6378948704533711	0.41762249879645075	0.6061742341480512	0.7465405780068362	0.4446310881270359	0.5808945352825958	0.7593442513993394	0.4823823920395012	0.6396742634099506	0.7573436756790995	0.08757507698094764	0.515198588873404	0.16643031389731924	0.03306831273454187	0.5820465565144235	0.4386515016791693	0.03338591806346172	0.594136799756178	0.6564351898156442	0.10171423898256658	0.5708043301173384	0.7602583600230979	0.05952064439707271	0.5904329876946294	0.801316682359815	0.03465563214946537	0.6022866814788386	0.7978408383109323
